# xmcd
#
# Track frame offsets:
#	150
#	15997
#	35230
#	53675
#	70994
#	85621
#	98376
#	114131
#	131489
#	146392
#	165020
#	180657
#	195302
#	210119
#	234854
#
# Disc length: 4034 seconds
#
# Revision: 0
# Processed by: cddbd v1.5.1PL0 Copyright (c) Steve Scherf et al.
# Submitted via: audiograbber 1.83.01
#
DISCID=a20fc00f
DTITLE=Ruben André - I`m Sixteen
DYEAR=1900
DGENRE=Pop
TTITLE0=01.I`m Sixteen
TTITLE1=02.Vem dancar á volta do amor
TTITLE2=03.Tu nao vais por ai
TTITLE3=01.Toca e fica
TTITLE4=05.E So mexer
TTITLE5=06.Ai Como eu quero
TTITLE6=07.Com medo de amar
TTITLE7=08.Beijinhos doces á sobremesa
TTITLE8=09.Nao deves levar a mal
TTITLE9=10.Sinto falta de ti
TTITLE10=11.Ainda nao é tarde demais
TTITLE11=12.O amor acontece
TTITLE12=13.Aprender o que é o amor
TTITLE13=14.O.K. Passa bem
TTITLE14=Daten-CD
EXTD=
EXTT0=
EXTT1=
EXTT2=
EXTT3=
EXTT4=
EXTT5=
EXTT6=
EXTT7=
EXTT8=
EXTT9=
EXTT10=
EXTT11=
EXTT12=
EXTT13=
EXTT14=
PLAYORDER=
